<?xml version="1.0" encoding="UTF-8" standalone="no"?>
<svg width="200px" height="100px" viewBox="0 0 200 100" version="1.1" xmlns="http://www.w3.org/2000/svg" xmlns:xlink="http://www.w3.org/1999/xlink">
    <!-- Generator: Sketch 41.2 (35397) - http://www.bohemiancoding.com/sketch -->
    <title>client_vamonde</title>
    <desc>Created with Sketch.</desc>
    <defs></defs>
    <g id="Page-1" stroke="none" stroke-width="1" fill="none" fill-rule="evenodd">
        <g id="client_vamonde" fill="#AFACB3">
            <g id="Vamonde_Logo_revised" transform="translate(42.000000, 33.000000)">
                <polyline id="Fill-13" points="0 13.8372093 3.8620212 13.8372093 7.47318728 28.4281395 11.1847774 13.8372093 15.0467986 13.8372093 9.7300636 34.2047674 5.31673498 34.2047674 0 13.8372093"></polyline>
                <path d="M18.4243251,26.7847674 L18.4243251,26.5356977 L18.4829399,26.5356977 L20.3803392,18.4681977 L22.3367633,26.5356977 L18.4829399,26.5356977 L18.4243251,26.7847674 L18.4243251,26.7847674 Z M22.8884806,13.8372093 L17.8726078,13.8372093 L12.7067138,34.2047674 L16.618742,34.2047674 L17.8226007,30.0214535 L23.0889187,30.0214535 L24.1423463,34.2047674 L27.9039435,34.2047674 L22.8884806,13.8372093 L22.8884806,13.8372093 Z" id="Fill-14"></path>
                <polyline id="Fill-15" points="29.5123675 13.8372093 29.5123675 34.2047674 33.0235194 34.2047674 33.0235194 18.4681977 37.1363958 34.2047674 40.1958445 34.2047674 44.308311 18.4185465 44.308311 34.2047674 47.7694558 34.2047674 47.7694558 13.8372093 42.3522968 13.8372093 38.6407067 27.2328488 35.0295406 13.8372093 29.5123675 13.8372093"></polyline>
                <path d="M97.9839293,27.2328488 C97.9839293,29.872093 96.4792085,30.9180233 95.3253569,30.9180233 L93.2689187,30.9180233 L93.2689187,17.0738953 C97.6326502,17.0738953 97.9839293,18.5182558 97.9839293,20.9084302 L97.9839293,27.2328488 L97.9839293,27.2328488 Z M95.475788,13.8372093 L89.3568905,13.8372093 L89.3568905,34.5393023 L95.9774982,34.5393023 C98.0839435,34.5393023 101.996382,32.5117442 101.996382,27.282907 L101.996382,20.1115698 C101.996382,17.920407 100.34123,13.8372093 95.475788,13.8372093 L95.475788,13.8372093 Z" id="Fill-16"></path>
                <polyline id="Fill-17" points="104.522968 13.8372093 104.522968 34.2047674 115.603223 34.2047674 115.603223 30.818314 108.485004 30.818314 108.485004 25.5894767 113.651307 25.5894767 113.651307 22.0040116 108.434996 22.0040116 108.434996 17.3229651 115.156028 17.3229651 115.156028 13.8372093 104.522968 13.8372093"></polyline>
                <path d="M70.1725582,10.6591279 L66.9348056,1.60145349 L79.7366148,10.6591279 L70.1725582,10.6591279 L70.1725582,10.6591279 Z M63.0194982,21.1806977 L66.1801908,11.3163953 L79.728007,11.3163953 L63.0194982,21.1806977 L63.0194982,21.1806977 Z M62.1956112,21.5811628 L59.3915264,21.5811628 L62.6801059,11.3163953 L65.4854204,11.3163953 L62.1956112,21.5811628 L62.1956112,21.5811628 Z M62.9067773,1.05610465 L66.0383674,1.05610465 L69.46959,10.6591279 L66.3388197,10.6591279 L62.9067773,1.05610465 L62.9067773,1.05610465 Z M81.5048975,10.9838953 C81.5048975,10.9240698 81.49506,10.8642442 81.4803038,10.8060465 C81.479484,10.8019767 81.479484,10.7975 81.4790741,10.7930233 C81.4663674,10.7498837 81.4491519,10.7083721 81.4298869,10.6693023 C81.4249681,10.6591279 81.4188197,10.6501744 81.413901,10.64 C81.3929964,10.6029651 81.3696324,10.5687791 81.3438091,10.535407 C81.3360211,10.5256395 81.3282332,10.5150581 81.3188056,10.5056977 C81.2839646,10.4670349 81.2458445,10.4316279 81.2040353,10.4011047 C81.201166,10.3998837 81.1999363,10.3970349 81.1978869,10.395 L66.6966572,0.135116279 C66.6941978,0.132267442 66.6900989,0.131860465 66.6880494,0.129418605 C66.6769823,0.122093023 66.6646855,0.116395349 66.6540282,0.109476744 C66.627795,0.0936046512 66.6015618,0.0785465116 66.5732791,0.0655232558 C66.5585229,0.0598255814 66.5437667,0.0537209302 66.5290105,0.0480232558 C66.5011377,0.038255814 66.4736749,0.0297093023 66.4453922,0.0223837209 C66.4310459,0.0183139535 66.4158798,0.015872093 66.4007137,0.0126162791 C66.3634134,0.00651162791 66.3273427,0.00244186047 66.2904522,0.00162790698 C66.2830741,0.00162790698 66.2777455,0 66.2715971,0 L62.4382685,0 C62.1997102,0 61.976318,0.115174419 61.8390035,0.307674419 C61.7012791,0.501395349 61.6680777,0.748430233 61.7475971,0.971046512 L65.0669187,10.2602907 L62.4382685,10.2602907 C62.1185512,10.2602907 61.8357243,10.465407 61.7393992,10.7665698 L58.2397243,21.6890116 C58.1684028,21.910407 58.2081625,22.1521512 58.3462968,22.3389535 C58.4848409,22.5269767 58.7041342,22.6380814 58.9377738,22.6380814 L62.4382685,22.6380814 C62.4940141,22.6380814 62.5473003,22.6307558 62.6001766,22.6185465 C62.6096042,22.6165116 62.6190317,22.6128488 62.6276395,22.609593 C62.6858445,22.5941279 62.7411802,22.5717442 62.7924169,22.5436628 C62.8002049,22.54 62.8079929,22.5387791 62.815371,22.5343023 L81.1491095,11.6110465 C81.1499293,11.6110465 81.151159,11.6106395 81.1519787,11.6102326 C81.1999363,11.5809302 81.2454346,11.5447093 81.286424,11.5031977 C81.2995406,11.4909884 81.3097879,11.4763372 81.3216749,11.463314 C81.3380706,11.445407 81.3548763,11.4303488 81.3688127,11.410814 C81.3802897,11.3945349 81.3888975,11.3766279 81.3991448,11.3607558 C81.4044734,11.3513953 81.4110317,11.3416279 81.4167703,11.3314535 C81.4425936,11.2834302 81.4626784,11.2333721 81.4770247,11.182093 C81.479484,11.1735465 81.4815335,11.164186 81.483583,11.1556395 C81.4966996,11.1002907 81.5053074,11.0441279 81.5053074,10.9875581 C81.5053074,10.9863372 81.5048975,10.9859302 81.5048975,10.9838953 L81.5048975,10.9838953 Z" id="Fill-18"></path>
                <polyline id="Fill-19" points="82.5911802 13.8372093 82.5911802 25.7888953 77.3748693 13.8372093 75.0163392 13.8372093 72.9611307 15.050407 72.9611307 34.2047674 76.4218657 34.2047674 76.4722827 21.2572093 82.6411873 34.2047674 86.3027703 34.2047674 86.3027703 13.8372093 82.5911802 13.8372093"></polyline>
                <path d="M66.085159,19.5006977 C67.0619364,20.7704651 67.6493145,22.3780233 67.6493145,24.1300581 C67.6493145,28.227907 64.4550106,31.5500581 60.5146996,31.5500581 C56.5743887,31.5500581 53.3800848,28.227907 53.3800848,24.1300581 C53.3800848,20.0322093 56.5743887,16.7100581 60.5146996,16.7100581 C60.714318,16.7100581 60.9102473,16.7243023 61.1057668,16.7409884 L62.1288622,13.5474419 C61.6021484,13.4709302 61.0631378,13.4302326 60.5146996,13.4302326 C54.485159,13.4302326 49.5971731,18.2207558 49.5971731,24.1300581 C49.5971731,30.0393605 54.485159,34.8298837 60.5146996,34.8298837 C66.5442403,34.8298837 71.4322261,30.0393605 71.4322261,24.1300581 C71.4322261,21.6971512 70.6021908,19.4551163 69.2069117,17.657907 L66.085159,19.5006977" id="Fill-20"></path>
                <path d="M63.5335689,17.4780233 C63.7348269,17.5818023 63.9303463,17.6949419 64.1201272,17.8170349 L65.1784735,14.5144186 C64.9788551,14.4187791 64.7763675,14.3284302 64.5701908,14.244186 L63.5335689,17.4780233" id="Fill-21"></path>
            </g>
        </g>
    </g>
</svg>