<?xml version="1.0" encoding="UTF-8" standalone="no"?>
<svg width="200px" height="100px" viewBox="0 0 200 100" version="1.1" xmlns="http://www.w3.org/2000/svg" xmlns:xlink="http://www.w3.org/1999/xlink">
    <!-- Generator: Sketch 41.2 (35397) - http://www.bohemiancoding.com/sketch -->
    <title>client_northerntrust</title>
    <desc>Created with Sketch.</desc>
    <defs></defs>
    <g id="Page-1" stroke="none" stroke-width="1" fill="none" fill-rule="evenodd">
        <g id="client_northerntrust" fill="#AFACB3">
            <g id="northern-trust" transform="translate(11.000000, 33.000000)">
                <path d="M93.4118739,23.4904692 L93.4118739,19.7001231 C93.3737048,18.4362385 93.5658665,17.0585846 92.9880651,16.0627769 C92.1786165,14.5687385 90.5597195,14.1868923 89.0178187,14.3006615 C87.9392121,14.3006615 86.9376018,15.1820462 86.5901312,16.0627769 L86.5901312,9.16993077 L82.7745357,9.16993077 C82.620543,9.28435385 82.6968812,9.55243077 82.851532,9.66816154 C83.3148261,9.66816154 83.8531423,9.70608462 84.0854474,10.2043154 L84.0854474,23.4538538 L83.6991496,23.8749308 C83.3148261,24.0665077 82.7745357,23.9135077 82.5040614,24.1417 C82.4665504,24.2567769 82.4283812,24.4490077 82.5823739,24.5634308 C84.5099143,24.4875846 86.4354805,24.6026615 88.3241937,24.4875846 C88.363021,24.3345846 88.363021,24.1417 88.2478555,24.0279308 C87.669396,24.0279308 87.0145982,24.0279308 86.7441239,23.4904692 C86.8606055,20.7338538 86.1656643,17.5568154 87.9392121,15.3736231 C88.4393592,14.8753923 89.056646,14.7223923 89.7114437,14.9139692 C90.5215504,15.3736231 90.6373739,16.2157769 90.7143702,17.0206615 C90.7907085,19.2032 90.7907085,21.4615846 90.7143702,23.6068538 C90.5215504,24.0665077 89.9825761,23.9135077 89.6732746,24.0665077 C89.5969364,24.2953538 89.5574511,24.4097769 89.6732746,24.5634308 C91.3698261,24.4875846 93.1420577,24.6026615 94.7991239,24.4875846 C94.9156055,24.3345846 94.8767783,24.1417 94.7609548,24.0279308 C94.2206643,24.0279308 93.6823482,23.9893538 93.4118739,23.4904692" id="Fill-1"></path>
                <path d="M80.8085629,24.0276038 C80.5387467,24.2571038 80.1537651,24.2956808 79.8451217,24.2571038 C79.4601401,24.1420269 79.3061474,23.7595269 79.3061474,23.3763731 L79.3061474,14.8757192 L81.5416732,14.8757192 L81.5416732,14.3016423 C80.8085629,14.3016423 79.9997724,14.3402192 79.2291511,14.3016423 L79.2291511,10.6642962 L78.534868,10.6642962 C78.4197026,12.1563731 77.1857871,13.4961038 75.9150188,14.1479885 C75.528721,14.3402192 74.7199305,14.0708346 75.0660849,14.8364885 L76.6086438,14.9142962 L76.4533349,22.2667962 C76.5685004,22.9552962 76.7619783,23.5293731 77.1857871,24.0276038 C78.1110592,24.8697577 79.4983092,25.2516038 80.6552283,24.7167577 C81.965482,24.0276038 82.0813055,22.5335654 82.196471,21.1931808 L81.6173533,21.1931808 C81.5416732,22.1523731 81.5021879,23.2227192 80.8085629,24.0276038" id="Fill-3"></path>
                <path d="M56.7592548,9.17019231 L51.9032217,9.17019231 L51.5945783,9.28461538 C51.4405857,9.43826923 51.5945783,9.70634615 51.8255673,9.82011538 C52.4040268,9.9365 52.9443173,10.3575769 53.2523026,10.9316538 C54.3690783,13.4600769 53.6754533,16.6756923 53.7912768,19.5467308 L46.6615489,9.70634615 L46.1219165,9.17019231 L41.4580452,9.17019231 L41.2277143,9.28461538 C41.1118908,9.39969231 41.1118908,9.66776923 41.3040526,9.78284615 C42.0365048,9.9365 42.999946,9.66776923 43.3480746,10.5105769 L43.3855857,20.1986154 C43.269104,21.692 42.8854386,23.4907308 41.2277143,23.9889615 C41.1118908,24.1805385 41.2277143,24.4486154 41.4580452,24.5636923 C43.1151114,24.4871923 44.7728357,24.6016154 46.3535636,24.4871923 C46.5075563,24.3341923 46.5075563,23.9889615 46.2765673,23.8745385 C44.8886592,23.4541154 44.3496849,21.9986538 44.1950342,20.7334615 L44.1950342,11.7358846 L44.2345195,11.8130385 L53.7531077,24.5636923 L54.6020415,24.5636923 L54.6020415,13.4960385 C54.717207,12.0039615 55.2555232,10.3575769 56.798082,9.78284615 C56.9132474,9.62984615 56.9520746,9.28461538 56.7592548,9.17019231" id="Fill-5"></path>
                <path d="M59.6509603,14.3013808 C57.8767544,14.7224577 56.4895044,16.5224962 56.1038647,18.1695346 C55.680714,19.9676115 56.0656956,21.9991115 57.336464,23.3761115 C58.5315522,24.6020731 60.1504493,25.2147269 61.8851699,24.87015 C63.5040669,24.5634962 65.160475,23.0694577 65.6237691,21.4609962 C66.1634015,19.6635731 65.8942434,17.5568808 64.8531478,16.1014192 C63.6205485,14.4158038 61.6541809,13.7652269 59.6509603,14.3013808 M62.5406257,23.5291115 C62.2708096,24.0273423 61.8081735,24.3339962 61.2691993,24.4104962 C60.4979199,24.4490731 59.7661257,24.2954192 59.3423169,23.6075731 C58.2623941,21.61465 58.5315522,18.8580346 58.8401956,16.67615 C59.0718426,15.8326885 59.6509603,14.8375346 60.6130853,14.7224577 C61.4225338,14.6080346 62.154986,14.9140346 62.6176221,15.6417654 C63.6205485,17.9021115 63.6205485,21.3079962 62.5406257,23.5291115" id="Fill-7"></path>
                <path d="M71.5588695,14.0714885 C70.7507371,14.4552962 70.4802629,15.2967962 70.2097886,16.06245 C70.1716195,15.4497962 70.1716195,14.8750654 70.1716195,14.3009885 L66.3948511,14.3009885 L66.3178548,14.4154115 C66.3178548,14.5690654 66.2402004,14.6841423 66.3560239,14.7606423 C66.8574871,14.8750654 67.4352886,14.8371423 67.6669357,15.3732962 L67.6669357,23.4901423 C67.3201232,24.0668346 66.6264982,23.9896808 66.0862077,24.0668346 C66.0473805,24.2950269 66.0473805,24.4101038 66.1638621,24.5631038 C68.0900864,24.4879115 70.0176268,24.6023346 71.9451673,24.4879115 C71.9826783,24.3342577 71.9451673,24.1812577 71.9063401,24.0668346 C71.2890533,23.9896808 70.5967445,24.0668346 70.2881011,23.4901423 L70.3256121,19.01195 C70.4802629,17.3649115 70.5566011,15.5642192 71.9826783,14.4938731 C72.3301489,14.4938731 72.7539577,14.3009885 73.0626011,14.5690654 C73.1389393,15.1058731 72.3696342,15.0287192 72.1754982,15.5276038 C71.9451673,15.83295 71.9826783,16.3305269 72.0991599,16.6371808 C72.1754982,16.9052577 72.3696342,17.1720269 72.6769614,17.2884115 C73.2165938,17.3649115 73.8713915,17.3649115 74.2570313,16.9052577 C74.6814982,16.3305269 74.5656746,15.4118731 74.2952004,14.7606423 C73.8332224,13.8034115 72.4841415,13.7275654 71.5588695,14.0714885" id="Fill-9"></path>
                <path d="M111.02475,13.8803038 C109.829662,13.9195346 109.252518,15.1821115 108.943875,15.9863423 L108.943875,14.3013808 L105.128937,14.3013808 L105.051283,14.4164577 C105.051283,14.5694577 105.013772,14.6838808 105.128937,14.7610346 C105.552088,14.8761115 106.12989,14.8362269 106.400364,15.2965346 L106.400364,23.4898808 C106.092379,24.0672269 105.397437,23.9894192 104.858463,24.0672269 C104.781467,24.2954192 104.781467,24.4104962 104.89729,24.5628423 C106.823515,24.48765 108.751055,24.6020731 110.716107,24.48765 C110.754934,24.3339962 110.716107,24.1809962 110.600941,24.0672269 C110.061309,23.9894192 109.367684,24.0672269 109.020871,23.5297654 L109.09721,19.4713423 C109.213691,17.6333808 109.213691,15.6796885 110.754934,14.4929577 C111.064235,14.4929577 111.488044,14.3013808 111.83354,14.5694577 C111.873684,15.1056115 111.141232,15.0291115 110.910243,15.5273423 C110.716107,15.8326885 110.754934,16.3302654 110.870757,16.6369192 C110.910243,16.9049962 111.141232,17.1724192 111.411048,17.2888038 C111.988849,17.36465 112.643647,17.36465 112.991118,16.9049962 C113.375441,16.3302654 113.33793,15.4116115 113.067456,14.7610346 C112.643647,14.0333038 111.83354,13.8038038 111.02475,13.8803038" id="Fill-11"></path>
                <path d="M168.836156,18.59035 C167.487075,17.90185 165.830009,18.0528885 164.750744,16.9433115 C164.558583,16.3306577 164.636237,15.5277346 165.175211,15.10535 C165.791182,14.49335 166.871105,14.5685423 167.602899,14.7614269 C168.797987,15.2962731 169.415274,16.5980808 169.877252,17.6331192 C169.95359,17.7481962 170.224064,17.7481962 170.339888,17.6331192 L170.339888,14.1866962 L170.14641,14.1866962 C169.415274,15.10535 168.296524,14.49335 167.487075,14.1866962 C165.984002,13.9192731 164.636237,14.49335 163.787303,15.71735 C163.208844,16.5222346 162.978513,17.7096192 163.363494,18.66685 C164.750744,20.8873115 167.835204,20.1595808 169.375789,22.0746962 C169.646263,22.5729269 169.375789,23.1855808 169.105972,23.6066577 C168.682164,24.0663115 168.181358,24.3343885 167.602899,24.4095808 C165.676017,24.3343885 164.366421,22.2276962 163.863642,20.6584654 L163.363494,20.6584654 L163.363494,24.6776577 C163.941296,24.8306577 164.057778,23.9133115 164.636237,24.1428115 C166.138653,24.7554654 168.37352,25.3681192 169.799597,24.0663115 C170.840035,23.3000038 171.187506,21.99885 170.917689,20.7336577 C170.762381,19.6999269 169.761428,18.8584269 168.836156,18.59035" id="Fill-13"></path>
                <path d="M160.781025,23.5293077 L160.742197,14.3015769 C159.354947,14.3408077 157.92887,14.3408077 156.618617,14.416 L156.503451,14.4931538 C156.503451,14.6075769 156.426455,14.7612308 156.581106,14.8756538 C157.119422,14.8756538 157.775536,14.9142308 158.122348,15.4503846 C157.775536,18.2835 158.892969,21.7292692 156.772609,23.7973846 C156.3488,24.1818462 155.732172,24.2956154 155.193856,24.2570385 C154.729903,24.0667692 154.498914,23.6071154 154.461403,23.2226538 L154.383749,14.3015769 C153.112322,14.3408077 151.762583,14.3408077 150.413503,14.416 L150.337164,14.4931538 C150.337164,14.6847308 150.337164,14.7612308 150.413503,14.8756538 C150.953793,14.9142308 151.608591,14.9142308 151.878407,15.4503846 L151.762583,20.4268077 C151.762583,21.4611923 151.723756,22.5335 152.148881,23.3763077 C152.880017,24.8311154 154.576569,24.9475 156.002646,24.7552692 C156.966087,24.6022692 157.852532,23.6437308 158.276341,22.8408077 C158.200003,23.4541154 158.276341,24.0275385 158.31451,24.6022692 C159.585936,24.5636923 160.936333,24.6781154 162.245929,24.4878462 C162.245929,24.4100385 162.284756,24.1818462 162.168275,24.0667692 C161.628642,23.9889615 161.012672,24.0667692 160.781025,23.5293077" id="Fill-15"></path>
                <path d="M104.31916,19.2790462 C104.31916,18.1694692 104.087513,17.0579308 103.662388,16.1013538 C103.355719,15.4501231 102.815428,14.8368154 102.160631,14.4543154 C100.965542,13.8037385 99.270307,13.9194692 98.0752187,14.4928923 C96.5339761,15.4122 95.5698768,17.0200077 95.2230643,18.6663923 C94.9525901,20.8875077 95.7238695,23.0693923 97.7277482,24.2567769 C99.0004908,24.9845077 100.965542,25.1375077 102.315281,24.3345846 C103.510369,23.6068538 104.048686,22.3416615 104.242164,21.0398538 L103.624877,21.0398538 C103.470226,22.0742385 103.008906,23.0693923 102.160631,23.7592 C101.351182,24.2953538 100.271259,24.5634308 99.3084761,24.1815846 C97.7277482,23.1857769 97.9212261,21.1176615 97.9212261,19.2790462 L104.31916,19.2790462 Z M99.963932,14.4157385 C100.387741,14.3405462 100.772722,14.4157385 101.082024,14.7609692 C101.891472,15.8326231 101.774991,17.2887385 101.891472,18.5898923 L97.9212261,18.5898923 C98.0363915,16.9435077 98.0752187,14.9139692 99.963932,14.4157385 L99.963932,14.4157385 Z" id="Fill-17"></path>
                <path d="M178.085586,21.1935077 C178.085586,22.2278923 177.971079,23.2223923 177.315623,23.9893538 C177.044491,24.2574308 176.659509,24.3345846 176.313355,24.2574308 C175.927057,24.1423538 175.889546,23.7212769 175.773064,23.3767 L175.773064,14.8753923 L178.085586,14.8753923 L178.085586,14.3013154 C177.276796,14.3013154 176.505517,14.3398923 175.773064,14.3013154 L175.773064,10.6633154 L175.080097,10.6633154 C174.886619,12.1567 173.654678,13.4964308 172.381936,14.1483154 C172.073292,14.3398923 171.186847,14.0711615 171.573145,14.8368154 L173.076219,14.9146231 L172.959737,22.2278923 C173.037392,23.2223923 173.615851,24.2960077 174.656289,24.6778538 C175.504564,25.0224308 176.775991,25.1375077 177.584781,24.4875846 C178.510053,23.6068538 178.625877,22.4194692 178.663388,21.1935077 L178.085586,21.1935077 Z" id="Fill-19"></path>
                <path d="M123.897417,23.4904692 L123.897417,17.3253538 C123.744082,16.5224308 123.6276,15.7175462 123.088626,15.1434692 C122.278519,14.2248154 121.161086,14.0718154 120.005483,14.0718154 C118.963729,14.1868923 117.885122,15.1820462 117.577137,16.0627769 L117.461314,14.3405462 C116.266225,14.2248154 114.993483,14.3405462 113.800369,14.4157385 C113.760883,14.5687385 113.760883,14.7223923 113.914876,14.8368154 C114.301174,14.8753923 114.841464,14.8753923 114.993483,15.2964692 L114.993483,23.6068538 C114.76381,24.1417 114.184692,23.9135077 113.800369,24.1417 C113.760883,24.2567769 113.724031,24.4490077 113.877365,24.5634308 L119.233545,24.5634308 L119.273031,24.4490077 C119.350027,24.2953538 119.273031,24.1417 119.233545,24.0279308 C118.656402,24.0279308 118.039773,24.0279308 117.73113,23.5290462 C117.962119,20.8476231 116.999336,17.4783538 118.578747,15.2964692 C119.079553,14.7609692 119.812005,14.5687385 120.583942,14.7223923 C121.007093,14.9139692 121.161086,15.3736231 121.23874,15.7947 L121.23874,23.6068538 C121.007093,24.0665077 120.468119,23.9135077 120.082479,24.1417 C120.082479,24.2567769 120.042994,24.4490077 120.197644,24.5634308 C121.855369,24.4875846 123.6276,24.6026615 125.362321,24.4875846 C125.401148,24.3345846 125.362321,24.1815846 125.246497,24.0665077 C124.783861,23.9893538 124.167891,24.0665077 123.897417,23.4904692" id="Fill-21"></path>
                <path d="M141.125837,11.3139577 C141.780635,12.0037654 142.050451,12.8465731 142.320268,13.7273038 C142.47426,13.8044577 142.744735,13.7658808 142.8599,13.6115731 L142.8599,9.17065 L128.908429,9.17065 L128.908429,14.4164577 L129.06308,14.6080346 C129.216415,14.6838808 129.446746,14.6838808 129.5244,14.4550346 C129.871871,12.4248423 131.799411,10.4718038 133.724977,9.89838077 C133.956624,9.81991923 134.304095,9.70549615 134.496257,9.93695769 C134.534426,14.2242269 134.534426,18.6664577 134.41926,22.9550346 C133.995451,23.7599192 133.03201,23.7599192 132.22322,23.7965346 C132.106738,24.0279962 132.106738,24.3339962 132.299558,24.5628423 L140.008404,24.48765 C140.046573,24.2954192 140.123569,23.9894192 139.968918,23.7599192 C139.044304,23.7965346 138.080863,23.7599192 137.695224,22.9164577 L137.656396,10.0513808 L137.810389,9.81991923 C139.044304,9.93695769 140.239393,10.3580346 141.125837,11.3139577" id="Fill-23"></path>
                <path d="M147.060346,14.0335654 C146.135732,14.4160654 145.904085,15.4118731 145.596757,16.06245 L145.596757,14.3402192 L141.741676,14.3402192 C141.626511,14.4932192 141.665338,14.6841423 141.780504,14.7612962 C142.204312,14.8757192 142.744603,14.8364885 143.013761,15.2588731 L143.053246,23.4901423 C142.744603,24.0661808 142.05032,23.9890269 141.510687,24.0661808 C141.395522,24.2571038 141.47186,24.40945 141.510687,24.5631038 C143.43757,24.4872577 145.442107,24.6023346 147.33082,24.4872577 C147.368989,24.3342577 147.368989,24.1426808 147.253165,24.0276038 C146.676022,24.0276038 146.01925,24.0276038 145.711265,23.5293731 L145.750092,18.8190654 C145.904085,17.2112577 146.01925,15.5276038 147.408474,14.4932192 C147.676974,14.4160654 148.177779,14.3402192 148.448254,14.5684115 C148.448254,15.1431423 147.599978,15.1052192 147.484812,15.7172192 C147.33082,16.3305269 147.484812,16.9046038 147.94679,17.2112577 C148.486423,17.4414115 149.180706,17.3642577 149.604515,16.9046038 C149.989496,16.3691038 149.989496,15.4118731 149.720338,14.8364885 C149.25836,13.8805654 147.94679,13.7269115 147.060346,14.0335654" id="Fill-25"></path>
                <path d="M17.1792618,3.66683462 C17.3957728,3.57921923 17.4911956,3.33271923 17.4911956,3.11760385 C17.4602654,2.87045 17.1792618,2.75145 16.9627507,2.75145 C16.8113904,2.75145 16.6909603,2.80768077 16.5948794,2.98945 C16.4974824,3.11760385 16.4974824,3.36475769 16.5948794,3.51514231 C16.7468978,3.66683462 16.9627507,3.73025769 17.1792618,3.66683462 M15.9137581,3.23725769 C15.9460044,2.80768077 16.1309272,2.47356538 16.4744493,2.25779615 C17.0265853,1.97991154 17.7083647,2.19437308 18.0124015,2.75145 C18.1407287,3.11760385 18.1091404,3.63545 17.8281368,3.94537308 C17.4911956,4.27883462 17.0265853,4.34291154 16.5948794,4.19252692 C16.1947618,4.00814231 15.9137581,3.63545 15.9137581,3.23725769" id="Fill-27"></path>
                <path d="M29.7209099,9.7138 C29.840682,9.37249231 29.6570754,9.13318462 29.4399062,8.88603077 C28.5751783,8.32895385 27.461693,8.88603077 26.909557,9.68241538 L27.8071893,10.0158769 C28.3915717,10.1119923 29.3760717,10.3584923 29.7209099,9.7138 L29.7209099,9.7138 Z M21.7837077,21.4346462 C21.9686305,21.7053385 22.2173879,21.2751077 22.4885202,21.2195308 C23.4822335,20.5120692 24.0343695,19.4057615 23.761921,18.1484154 C23.6026636,17.7508769 23.0498695,17.8698769 22.7688658,18.0849923 C21.7521195,18.8885692 21.5040202,20.2328769 21.7837077,21.4346462 L21.7837077,21.4346462 Z M23.0498695,9.25218462 C22.1528952,9.2208 21.4158364,9.56341538 20.7913107,10.1433769 C20.3582886,10.5415692 20.0864982,11.0345692 20.2385165,11.6158385 C20.4227812,11.8943769 20.7353732,12.0761462 21.0716562,11.9819923 C22.2173879,11.5524154 22.8333585,10.3584923 23.0498695,9.25218462 L23.0498695,9.25218462 Z M21.5678548,6.18106923 C20.7676195,6.09345385 19.7739062,6.09345385 18.9098364,6.15687692 C19.1256893,6.58645385 19.093443,7.16706923 18.9414246,7.59664615 L21.4395276,7.59664615 C21.6553805,7.50183846 21.8725496,7.38283846 21.9686305,7.16706923 C22.0561562,6.92122308 22.0561562,6.58645385 21.8403033,6.37199231 L21.5678548,6.18106923 Z M20.1187445,22.7155308 C19.8068107,22.9306462 19.5573952,23.2726077 19.6857224,23.6708 C19.7429761,23.7342231 19.8068107,23.8852615 19.958171,23.8218385 C20.2075864,23.5197615 20.2385165,23.0574923 20.1187445,22.7155308 L20.1187445,22.7155308 Z M18.8775901,24.0676846 C19.1256893,24.4338385 19.4705276,24.7130308 19.8706452,24.8084923 C20.5741415,24.9281462 21.4158364,24.8084923 21.8403033,24.1317615 C21.7205312,24.1317615 21.6237923,24.0676846 21.5369246,24.0042615 C21.2875092,23.8218385 21.2875092,23.4883769 21.3197555,23.2405692 C21.4158364,22.9626846 21.6553805,22.8430308 21.8725496,22.7469154 L21.4158364,22.2938 L20.5511085,22.4762231 L20.6715386,23.0574923 C20.5741415,23.5197615 20.5511085,24.0676846 20.0220055,24.3468769 C19.7429761,24.4338385 19.4705276,24.2834538 19.3106121,24.0676846 C19.093443,23.8852615 19.0375055,23.5197615 19.1256893,23.1764923 C19.1579357,22.8109923 19.4705276,22.4128 19.8068107,22.1663 C19.4705276,21.7367231 19.0375055,21.3712231 18.541307,21.1554538 C18.5722371,22.1663 18.4452261,23.2405692 18.8775901,24.0676846 L18.8775901,24.0676846 Z M19.0052592,4.4948 C18.8775901,4.83610769 18.324796,4.95576154 18.3886305,5.33041538 C19.8068107,5.7273 22.0561562,4.6223 22.6490937,6.42756923 C22.7050312,6.82576154 22.7050312,7.25533846 22.5214246,7.50183846 C22.3042555,7.90003077 21.9370423,8.14653077 21.5040202,8.27403077 L18.541307,8.27403077 L18.541307,20.4473385 C19.2217702,20.7572615 19.9022335,21.3071462 20.3345974,21.9518385 L21.1032445,21.8328385 C20.5741415,20.3283385 20.8551452,18.5786462 22.1528952,17.5678 C22.553671,17.2251846 23.0814577,16.8917231 23.6987445,17.1375692 C24.2508805,17.5351077 24.4680496,18.1484154 24.4680496,18.8565308 C24.4028989,20.1779538 23.3854945,21.4895692 22.1528952,22.0466462 C22.2733254,22.1989923 22.4325827,22.2938 22.6168474,22.3814154 C23.1387114,22.0793385 23.6335937,21.7053385 24.1626967,21.2751077 C24.5950607,20.8775692 24.835921,20.3845692 25.3327776,20.0818385 C25.7644835,20.7572615 25.6999908,21.7053385 25.7644835,22.5331077 C26.2290937,22.3500308 26.6614577,21.9832231 27.0299871,21.5850308 C27.8071893,20.5434538 28.110568,19.0709923 27.6459577,17.8143 C26.693046,15.4506462 25.1485129,13.0876462 25.8928107,10.2309923 C25.2432776,9.89687692 24.5950607,9.4673 23.8191746,9.34764615 C23.6987445,9.80141538 23.4822335,10.2309923 23.2670386,10.6612231 C22.7379357,11.7348385 21.6237923,12.7535308 20.3345974,12.6260308 C20.0864982,12.5312231 19.7739062,12.3239538 19.6541342,12.0761462 C19.3422004,11.4641462 19.4705276,10.6612231 19.8068107,10.1433769 C20.6379761,9.00568462 21.9370423,8.54472308 23.2670386,8.39303077 C23.4183989,7.13568462 23.2018879,5.81556923 22.3687482,4.8688 C21.7521195,4.09660769 20.8551452,3.97695385 19.9022335,4.00833846 C19.5573952,4.09660769 19.0375055,4.00833846 19.0052592,4.4948 L19.0052592,4.4948 Z M18.6044835,31.8020308 C18.5722371,32.4473769 18.1405312,33.0279923 17.5804982,33.2424538 C22.4885202,33.0279923 26.7581967,30.9435308 29.937421,26.9491846 C33.6049467,22.4762231 34.3499026,15.0766462 31.570796,9.92956923 C31.3391489,9.4673 31.0910496,9.02137692 30.8186011,8.5918 C28.0151452,4.15153077 23.0663217,1.25564615 17.8272812,1.03268462 C18.1405312,1.15168462 18.3886305,1.33476154 18.6044835,1.54987692 C19.2217702,2.10695385 19.4369651,2.87064615 19.3106121,3.66703077 C20.5188621,3.45191538 21.8403033,3.57941538 22.7379357,4.40653077 C23.9468437,5.38599231 24.187046,6.92122308 24.0343695,8.45645385 C24.835921,8.57610769 25.5802187,8.94226154 26.3495239,9.37249231 C26.8786268,8.57610769 27.7426967,8.11449231 28.6725754,8.11449231 C29.311579,8.11449231 29.9690092,8.40153077 30.2816011,8.91872308 C30.3289835,8.99783846 30.3612298,9.06910769 30.3941342,9.15672308 C30.5849798,9.7138 30.3697849,10.2309923 29.937421,10.5729538 C28.9443658,11.2503385 27.4307629,11.0031846 26.4449467,10.5415692 C25.4604467,14.3136077 29.8735864,16.4935308 28.7271967,20.2963 C28.3277371,21.6177231 27.0299871,22.8430308 25.6999908,23.1764923 C25.4604467,24.3795692 25.395954,25.6676462 24.4989798,26.5274538 C23.8507629,26.5830308 23.9468437,25.7552615 23.5151379,25.5728385 C22.6490937,26.4313385 21.7205312,27.1950308 20.6379761,27.5696846 C20.6379761,28.7629538 20.2385165,29.8365692 19.3731305,30.6957231 C19.1256893,31.1259538 18.324796,31.1900308 18.6044835,31.8020308 L18.6044835,31.8020308 Z M15.945807,32.1374538 C16.042546,32.3512615 16.2583989,32.5663769 16.4749099,32.6611846 C16.7473585,32.6932231 17.1237849,32.7167615 17.363329,32.5663769 C17.675921,32.3833 17.8272812,32.1047615 17.892432,31.7392615 C17.3396379,32.0491846 16.497943,31.9537231 15.9142187,31.7392615 L15.945807,32.1374538 Z M17.027046,29.7417615 C16.0741342,28.7629538 14.9935533,27.9678769 13.7517408,27.6559923 L14.0004982,28.8590692 C14.3440202,29.5266462 14.8652261,30.2988385 15.513443,30.7284154 C15.8589393,30.2988385 16.2827482,30.0523385 16.7473585,30.0203 C17.3962335,29.9562231 17.9562665,30.2668 18.324796,30.7918385 C19.0052592,30.2988385 19.5264651,29.5907231 19.7429761,28.8270308 C19.7739062,28.4837615 19.9904173,28.1176077 19.8706452,27.7834923 C18.7894062,28.1816846 17.8272812,28.8270308 17.027046,29.7417615 L17.027046,29.7417615 Z M12.4546489,7.59664615 L15.0488327,7.59664615 C14.9290607,7.13568462 14.8652261,6.58645385 15.081079,6.09345385 L12.7349945,6.09345385 C12.5191415,6.09345385 12.3348768,6.18106923 12.149954,6.37199231 C11.9979357,6.52368462 11.9979357,6.82576154 11.9979357,7.04022308 C12.0216268,7.28672308 12.238796,7.50183846 12.4546489,7.59664615 L12.4546489,7.59664615 Z M16.162318,31.1259538 C16.5953401,31.2783 17.2751452,31.2783 17.7075092,31.1259538 C17.4607261,30.8160308 17.1474761,30.6957231 16.811193,30.7284154 C16.5308474,30.7918385 16.2583989,30.8480692 16.162318,31.1259538 L16.162318,31.1259538 Z M15.4252592,21.2751077 C14.3440202,22.1663 13.9675937,23.4556846 13.7517408,24.7130308 C14.0004982,24.7130308 14.2801857,24.7764538 14.4960386,24.6496077 C15.6977077,24.0042615 15.4811967,22.5010692 15.4252592,21.2751077 L15.4252592,21.2751077 Z M14.648057,20.4159538 C14.432204,19.2226846 13.2298768,18.3314923 12.3019724,17.5998385 L12.7994871,19.1030308 C13.1351121,19.7398769 13.5358879,20.6310692 14.3440202,20.8141462 C14.5296011,20.7572615 14.6164687,20.5990308 14.648057,20.4159538 L14.648057,20.4159538 Z M12.1190239,16.5576077 C13.5121967,17.3847231 15.081079,18.7610692 15.4811967,20.2328769 L15.4811967,8.27403077 L14.3440202,8.27403077 C12.9192592,10.7566846 12.0216268,13.5172231 12.1190239,16.5576077 L12.1190239,16.5576077 Z M11.1562408,23.8218385 C11.2536379,23.3922615 11.8057739,23.6708 11.9341011,23.3680692 C10.9166967,22.8430308 9.80386949,22.3500308 8.97072978,21.4026077 C8.81805331,22.7155308 8.93848346,24.1638 9.70713051,25.2380692 C9.95522978,25.0471462 9.83545772,24.6816462 10.1079062,24.4658769 C10.2362335,24.3795692 10.4527445,24.4338385 10.5172371,24.4972615 C10.8837923,24.9281462 11.3174724,25.3570692 11.7807665,25.6918385 C13.2950276,27.1950308 15.610182,26.8609154 16.9625533,28.6746846 C17.5804982,28.0868769 18.2609614,27.5696846 19.0052592,27.2904923 C20.7353732,26.8609154 22.3042555,25.9063 23.5151379,24.4658769 C24.1626967,24.1638 23.9705349,25.0471462 24.3469614,25.2380692 C25.0517739,24.1317615 25.2432776,22.7155308 25.0280827,21.4026077 C24.187046,22.3814154 23.0814577,22.9071077 22.0008768,23.3922615 C22.0890607,23.5746846 22.3687482,23.5197615 22.5214246,23.5197615 C22.7050312,23.5746846 22.8662629,23.7342231 22.8662629,23.9493385 C22.8333585,24.2200308 22.7050312,24.4658769 22.4885202,24.6496077 C21.6237923,25.4525308 20.2385165,25.6918385 19.1579357,25.2380692 C18.541307,24.9915692 17.9562665,24.2834538 17.8272812,23.6060692 L17.7963511,8.05826154 C18.1405312,7.77972308 18.3563842,7.41422308 18.3886305,7.01668462 C18.4452261,6.39553077 18.1082849,5.96595385 17.7075092,5.60045385 C17.3396379,4.7413 18.2609614,4.40653077 18.4774724,3.73045385 C18.6044835,3.33291538 18.541307,2.80722308 18.3563842,2.47376154 C17.9562665,1.76499231 17.0599504,1.48645385 16.3465827,1.82776154 C15.7306121,2.10695385 15.4811967,2.75164615 15.4811967,3.41922308 C15.393671,4.12799231 16.4110754,4.34310769 16.3465827,5.08326154 C16.497943,5.94241538 15.393671,6.18106923 15.6417702,7.07291538 C15.6977077,7.41422308 15.9142187,7.81241538 16.1945643,8.02687692 L16.1945643,22.3814154 C16.3465827,23.3922615 16.1300717,24.3468769 15.296932,24.9915692 C14.5296011,25.6035692 13.1989467,25.5728385 12.3019724,25.1432615 C11.8057739,24.8320308 11.1009614,24.4972615 11.1562408,23.8218385 L11.1562408,23.8218385 Z M13.447046,33.6406462 C7.97701654,32.6611846 2.58003493,27.9678769 0.938104779,22.6919923 C0.481391544,21.3712231 0.169457721,19.9543385 0.0496856618,18.5145692 C-0.448487132,11.7989154 2.82813419,5.75149231 8.69038419,2.44106923 C11.5339835,0.905838462 14.648057,0.141492308 18.1721195,0.293184615 C24.4028989,0.658684615 30.5849798,5.08326154 32.8047114,10.9070692 C35.3028143,17.0107231 33.7977665,24.3795692 29.0963842,28.9780692 C24.9320018,33.0914154 19.3422004,34.8103769 13.447046,33.6406462 L13.447046,33.6406462 Z M9.37084743,27.8403769 C8.38634743,28.4294923 7.20836949,27.8717615 6.43972243,27.2270692 C2.69980699,23.1764923 6.34364154,18.2124923 7.92173713,14.3136077 C7.20836949,13.3897231 6.71282904,12.3795308 6.43972243,11.2503385 C6.34364154,10.4454538 6.34364154,9.49868462 7.05700919,8.91022308 C7.52161949,8.54472308 8.25802022,8.48914615 8.81805331,8.72714615 C10.5172371,10.1433769 9.45903125,12.7221462 8.97072978,14.4084154 C9.67554228,15.0766462 10.4843327,15.4826846 11.2536379,15.9443 C11.3484026,13.0876462 12.365807,10.6363769 13.7517408,8.27403077 C12.8633217,8.32895385 11.8696085,8.36099231 11.4372445,7.41422308 C11.3174724,7.04022308 11.2536379,6.52368462 11.4701489,6.18106923 C11.6544136,5.81556923 12.0216268,5.51218462 12.4296415,5.41737692 L15.513443,5.38599231 C15.610182,5.33041538 15.6417702,5.26568462 15.6417702,5.17087692 C14.8652261,4.52618462 14.5296011,3.63499231 14.744796,2.65553077 C14.9290607,1.97945385 15.4811967,1.28049231 16.162318,1.03268462 C11.6853437,1.28049231 7.82434007,3.18122308 4.67802022,6.58645385 C0.722251838,10.9070692 -0.448487132,17.9019154 1.96340625,23.3680692 C4.21275184,28.9453769 10.1394945,33.0914154 16.0741342,33.2110692 L15.945807,33.1469923 C15.2653437,32.8128769 15.1771599,32.1047615 15.2094062,31.3959923 C13.8478217,30.4184923 13.0791746,29.0414923 12.9192592,27.4108 L11.7182482,26.6784923 C11.2536379,26.3365308 10.8837923,25.8827615 10.3889099,25.5728385 C9.61894669,26.1214154 10.3237592,27.3539154 9.37084743,27.8403769 L9.37084743,27.8403769 Z M7.39263419,9.49868462 C6.49631801,10.8756846 7.48871507,12.4122231 8.25802022,13.5172231 C8.62589154,12.3239538 9.24252022,10.9070692 8.69038419,9.5863 C8.47453125,9.03772308 7.70588419,9.13318462 7.39263419,9.49868462 L7.39263419,9.49868462 Z M11.3734099,17.1055308 C10.4843327,16.5576077 9.5235239,15.9122615 8.69038419,15.2361846 C7.54465257,17.6868 5.79150551,19.8987615 5.57499449,22.7469154 C5.32689522,24.5933769 6.09554228,26.2489154 7.70588419,27.2904923 C8.10534375,27.4421846 8.75356066,27.6246077 9.15499449,27.1950308 C9.27476654,26.9805692 9.30767096,26.7419154 9.27476654,26.4313385 C8.40938051,24.9281462 8.19418566,23.1451077 8.32251287,21.3071462 C8.38634743,20.8775692 8.40938051,20.4159538 8.72263051,20.0818385 C9.40309375,20.8141462 10.1723989,21.7053385 11.0371268,22.1989923 C11.589921,22.7469154 12.8863548,22.5965308 12.7349945,23.7021846 C12.6461526,23.8852615 12.4546489,24.1317615 12.2144467,24.1317615 C12.4296415,24.3795692 12.7349945,24.4972615 12.9830937,24.5933769 C13.1351121,23.4556846 13.566818,22.3814154 14.1288254,21.5216077 C12.4296415,20.7265308 11.7807665,18.7931077 11.3734099,17.1055308 L11.3734099,17.1055308 Z" id="Fill-29"></path>
            </g>
        </g>
    </g>
</svg>