<?xml version="1.0" encoding="UTF-8" standalone="no"?>
<svg width="200px" height="100px" viewBox="0 0 200 100" version="1.1" xmlns="http://www.w3.org/2000/svg" xmlns:xlink="http://www.w3.org/1999/xlink">
    <!-- Generator: Sketch 41.2 (35397) - http://www.bohemiancoding.com/sketch -->
    <title>client_uptake</title>
    <desc>Created with Sketch.</desc>
    <defs></defs>
    <g id="Page-1" stroke="none" stroke-width="1" fill="none" fill-rule="evenodd">
        <g id="client_uptake" fill="#AFACB3">
            <path d="M171.959,58.696 L153.354,58.696 L153.354,41.488 L171.959,41.488 L171.959,45.471 L157.609,45.471 L157.609,48.23 L171.959,48.23 L171.959,51.979 L157.609,51.979 L157.609,54.713 L171.959,54.713 L171.959,58.696 M150.274,58.688 L144.393,58.688 L137.471,51.869 L130.549,58.688 L127.687,58.688 L127.687,41.41 L131.877,41.41 L131.877,51.587 L142.077,41.488 L148.01,41.488 L140.412,48.973 L150.274,58.688 M90.939,58.688 L86.255,58.688 L86.255,45.589 L78.136,45.589 L78.136,41.488 L99.058,41.488 L99.058,45.589 L90.939,45.589 L90.939,58.688 M42.702,58.688 L34.636,58.688 C30.316,58.637 28.078,56.407 28,52.151 L28,41.488 L32.528,41.488 L32.528,52.151 C32.58,53.741 33.386,54.484 35,54.587 L42.338,54.587 C43.899,54.51 44.81,53.689 44.81,52.151 L44.81,41.488 L49.338,41.488 L49.338,52.151 C49.26,56.407 47.022,58.637 42.702,58.688 M57.925,58.688 L53.241,58.688 L53.241,41.488 L68.75,41.488 C69.244,41.488 69.947,41.539 70.389,41.616 C73.642,42.052 75.385,44.205 75.385,47.716 C75.385,51.152 73.72,53.228 70.65,53.741 C70.207,53.818 69.478,53.895 68.75,53.895 L57.925,53.895 L57.925,58.688 M57.925,45.589 L57.925,49.947 L68.88,49.947 C70.155,49.921 70.857,49.255 70.857,47.87 L70.857,47.665 C70.857,46.281 70.155,45.615 68.88,45.589 L57.925,45.589 M99.305,58.945 L99.305,52.869 L111.352,41 L123.349,52.792 L123.349,58.868 L111.352,47.05 L99.305,58.945" id="uptake"></path>
        </g>
    </g>
</svg>