<?xml version="1.0" encoding="UTF-8"?>
<svg width="200px" height="100px" viewBox="0 0 200 100" version="1.1" xmlns="http://www.w3.org/2000/svg" xmlns:xlink="http://www.w3.org/1999/xlink">
    <!-- Generator: Sketch 42 (36781) - http://www.bohemiancoding.com/sketch -->
    <title>Artboard</title>
    <desc>Created with Sketch.</desc>
    <defs>
        <polygon id="path-1" points="64.23673 34.4862295 0.313498099 34.4862295 0.313498099 0.505081967 64.23673 0.505081967"></polygon>
    </defs>
    <g id="Page-1" stroke="none" stroke-width="1" fill="none" fill-rule="evenodd">
        <g id="Artboard">
            <g id="Group" transform="translate(15.000000, 31.000000)">
                <path d="M123.101331,35.8704098 C122.220304,36.8441311 121.007034,37.3536885 119.725894,37.3536885 C117.276084,37.3536885 115.319468,35.4740164 115.319468,33.0061475 C115.319468,30.5510656 117.27673,28.6713934 119.725894,28.6713934 C121.007034,28.6713934 122.220951,29.1803115 123.112966,30.165541 L121.877072,31.3879672 C121.398745,30.5951803 120.577833,30.1770492 119.731065,30.1770492 C118.212053,30.1770492 117.158441,31.5465246 117.158441,33.0067869 C117.158441,34.4664098 118.199125,35.8473934 119.737529,35.8473934 C120.39038,35.8473934 121.030304,35.6491967 121.902928,34.6646066 L123.118137,35.8601803 L123.101331,35.8704098 Z M128.4573,34.1019836 L127.578213,31.6532951 C127.317719,32.3501803 126.996464,33.3028033 126.699125,34.0955902 L128.462471,34.0955902 L128.4573,34.1019836 Z M131.695703,37.2347705 L129.730684,37.2347705 L129.032586,35.6044426 L126.110913,35.6044426 L125.437376,37.2347705 L123.458137,37.2347705 L126.993878,28.7442787 L128.174183,28.7442787 L131.696996,37.2347705 L131.695703,37.2347705 Z M137.286958,31.9346066 C137.286958,31.0139508 136.679354,30.2467377 135.948935,30.2467377 L134.356236,30.2467377 L134.356236,33.6224754 L135.94635,33.6224754 C136.679354,33.6224754 137.284373,32.8616557 137.284373,31.9346066 L137.286958,31.9346066 Z M135.970266,35.1249344 L134.356236,35.1249344 L134.356236,37.228377 L132.509506,37.228377 L132.509506,28.7577049 L135.965095,28.7577049 C137.703878,28.7704918 139.110418,30.1962295 139.110418,31.9512295 C139.110418,33.7158197 137.704525,35.1306885 135.96251,35.1415574 L135.970266,35.1249344 Z M140.514373,37.228377 L142.346236,37.228377 L142.346236,28.7577049 L140.516958,28.7577049 L140.514373,37.228377 Z M150.654259,30.2627213 L148.172129,30.2627213 L148.172129,37.2443607 L146.329924,37.2443607 L146.329924,30.2665574 L143.84327,30.2665574 L143.84327,28.761541 L150.651673,28.761541 L150.651673,30.2671967 L150.654259,30.2627213 Z M155.286274,34.1160492 L154.407186,31.6737541 C154.142167,32.3770328 153.822852,33.3296557 153.525513,34.1224426 L155.288213,34.1224426 L155.286274,34.1160492 Z M158.524677,37.2552295 L156.559658,37.2552295 L155.861559,35.6249016 L152.939886,35.6249016 L152.264411,37.2552295 L150.286464,37.2552295 L153.822205,28.7647377 L155.005095,28.7647377 L158.531787,37.2552295 L158.524677,37.2552295 Z M164.995019,35.7527705 L164.995019,37.261623 L159.558897,37.261623 L159.558897,28.7640984 L161.401103,28.7640984 L161.401103,35.7457377 L164.995019,35.7457377 L164.995019,35.7527705 Z M121.932662,21.7741475 C121.932662,23.4383607 120.46924,24.2196393 118.627034,24.2196393 C117.114487,24.2196393 116.144905,23.596918 115.227034,22.6231967 L116.51076,21.3668852 C116.821027,21.9998361 117.771217,22.7139836 118.630913,22.7139836 C119.247567,22.7024754 120.094335,22.543918 120.094335,21.7741475 C120.094335,21.0273934 119.234639,20.7217869 118.523612,20.5063279 C117.230837,20.1214426 115.662053,19.4878525 115.662053,17.880541 C115.662053,16.341 117.124183,15.5373443 118.623802,15.5373443 C119.90365,15.5373443 121.105932,16.1600656 122.010875,17.1446557 L120.773688,18.367082 C120.385856,17.8575246 119.584335,17.0436393 118.621217,17.0436393 C118.071787,17.0436393 117.490038,17.2801967 117.490038,17.8920492 C117.490038,18.582541 118.349734,18.8651311 118.999354,19.0684426 C120.37616,19.4763443 121.928783,20.1329508 121.928783,21.7741475 L121.932662,21.7741475 Z M129.32346,17.1325082 L126.834867,17.1325082 L126.834867,24.1173443 L124.992662,24.1173443 L124.992662,17.1331475 L122.510532,17.1331475 L122.510532,15.6274918 L129.320228,15.6274918 L129.320228,17.1331475 L129.32346,17.1325082 Z M132.093232,20.3030164 L133.687871,20.3030164 C134.431217,20.3030164 135.038821,19.6349016 135.038821,18.7174426 C135.038821,17.8012623 134.431217,17.1331475 133.687871,17.1331475 L132.097757,17.1331475 L132.097757,20.3030164 L132.093232,20.3030164 Z M135.254068,21.4231475 L137.096274,24.1173443 L135.04076,24.1173443 L133.471977,21.8093115 L132.099049,21.8093115 L132.099049,24.1173443 L130.256844,24.1173443 L130.256844,15.6268525 L133.702091,15.6268525 C135.462852,15.6396393 136.869392,16.963082 136.869392,18.718082 C136.869392,19.9072623 136.226236,20.9027213 135.253422,21.4225082 L135.254068,21.4231475 Z M144.297034,22.6123279 L144.297034,24.1173443 L138.095589,24.1173443 L138.095589,15.6268525 L144.092129,15.6268525 L144.092129,17.1344262 L139.929392,17.1344262 L139.929392,18.9565574 L143.337795,18.9565574 L143.337795,20.4737213 L139.924867,20.4737213 L139.924867,22.6142459 L144.297034,22.6142459 L144.297034,22.6123279 Z M151.803536,22.6142459 L151.803536,24.1230984 L145.601445,24.1230984 L145.601445,15.6319672 L151.596692,15.6319672 L151.596692,17.1344262 L147.433954,17.1344262 L147.433954,18.9565574 L150.844943,18.9565574 L150.844943,20.4737213 L147.435247,20.4737213 L147.435247,22.6142459 L151.811293,22.6142459 L151.803536,22.6142459 Z M159.399886,17.1350656 L156.913232,17.1350656 L156.913232,24.1230984 L155.071027,24.1230984 L155.071027,17.1344262 L152.588897,17.1344262 L152.588897,15.6294098 L159.397947,15.6294098 L159.397947,17.1344262 L159.399886,17.1350656 Z M122.335361,2.49344262 L122.335361,10.9839344 L120.503498,10.9839344 L120.503498,7.49695082 L117.356882,7.49695082 L117.356882,10.9832951 L115.525665,10.9832951 L115.525665,2.49344262 L117.356882,2.49344262 L117.356882,5.98042623 L120.503498,5.98042623 L120.503498,2.49344262 L122.334715,2.49344262 L122.335361,2.49344262 Z M124.073498,10.9839344 L125.902776,10.9839344 L125.902776,2.49344262 L124.067034,2.49344262 L124.073498,10.9839344 Z M135.062091,9.60295082 C134.17654,10.5760328 132.967795,11.0862295 131.681483,11.0862295 C129.231673,11.0862295 127.273118,9.20655738 127.273118,6.73868852 C127.273118,4.28232787 129.225209,2.40393443 131.675019,2.40393443 C132.954867,2.40393443 134.170076,2.91285246 135.062091,3.89744262 L133.82749,5.11986885 C133.3427,4.32708197 132.521787,3.90895082 131.675019,3.90895082 C130.149544,3.90895082 129.102395,5.27842623 129.102395,6.73868852 C129.102395,8.19895082 130.14308,9.57993443 131.675019,9.57993443 C132.327871,9.57993443 132.967795,9.38813115 133.833954,8.40354098 L135.0427,9.60231148 L135.062091,9.60295082 Z M140.414183,6.07952459 C141.706958,7.59477049 143.31,9.49362295 144.568517,10.9769016 L142.118707,10.9769016 L139.028973,7.20477049 L138.227452,7.85690164 L138.227452,10.9705082 L136.398175,10.9705082 L136.398175,2.49344262 L138.227452,2.49344262 L138.227452,5.73108197 C139.498251,4.65570492 140.814943,3.55731148 142.060532,2.49344262 L144.704259,2.49344262 L140.414183,6.08208197 L140.414183,6.07952459 Z" id="Shape" fill="#AFACB3" fill-rule="nonzero"></path>
                <path d="M146.23749,6.73868852 C146.23749,8.17721311 147.301445,9.57993443 148.812053,9.57993443 C150.350456,9.57993443 151.391141,8.19895082 151.391141,6.73868852 C151.391141,5.27842623 150.350456,3.90895082 148.818517,3.90895082 C147.312433,3.90895082 146.245894,5.28993443 146.245894,6.73868852 L146.23749,6.73868852 Z M153.218479,6.73868852 C153.218479,9.20655738 151.250228,11.0862295 148.812053,11.0862295 C146.375171,11.0862295 144.410152,9.20655738 144.410152,6.73868852 C144.410152,4.28232787 146.381635,2.40393443 148.818517,2.40393443 C151.261863,2.40393443 153.226882,4.28232787 153.226882,6.73868852 L153.218479,6.73868852 Z M155.829886,7.16896721 L157.42,7.16896721 C158.163346,7.16896721 158.770951,6.50085246 158.770951,5.58339344 C158.770951,4.66721311 158.163346,3.99909836 157.42,3.99909836 L155.829886,3.99909836 L155.829886,7.16896721 Z M158.988137,8.28909836 L160.830342,10.9832951 L158.770951,10.9832951 L157.202814,8.66886885 L155.829886,8.66886885 L155.829886,10.9769016 L153.987681,10.9769016 L153.987681,2.49344262 L157.431635,2.49344262 C159.194335,2.50495082 160.602167,3.82967213 160.602167,5.58403279 C160.602167,6.77321311 159.962243,7.76867213 158.992662,8.28845902 L158.988137,8.28909836 Z M169.462205,2.49344262 L165.913536,7.6324918 L165.913536,10.9826557 L164.071331,10.9826557 L164.071331,7.6324918 L160.523954,2.49344262 L162.721673,2.49344262 L164.987262,5.92352459 L167.264487,2.49344262 L169.462205,2.49344262 L169.462205,2.49344262 Z M88.0548289,38.9450164 C77.3551711,38.9450164 68.224943,30.966 68.224943,19.6080492 C68.224943,8.24690164 77.3002281,0.32542623 87.4937643,0.32542623 C95.7287452,0.32542623 100.77057,3.75870492 103.963726,8.41313115 L100.545627,10.7403443 C98.1371863,7.13444262 94.2724335,4.19985246 87.6062357,4.19985246 C79.4281369,4.19985246 72.9306464,10.6828033 72.9306464,19.6016557 C72.9306464,28.5205082 79.485019,35.061 88.0548289,35.061 C94.5523194,35.061 98.473308,32.5100164 101.27346,27.7469016 L104.802738,29.9590328 C101.050456,36.2182131 95.7856274,38.9354262 88.0548289,38.9354262 L88.0548289,38.9450164 Z" id="Shape" fill="#AFACB3" fill-rule="nonzero"></path>
                <g transform="translate(36.197719, 4.475410)" id="Clipped">
                    <g>
                        <mask id="mask-2" fill="white">
                            <use xlink:href="#path-1"></use>
                        </mask>
                        <g id="a"></g>
                        <path d="M63.5076046,6.76681967 L60.0907985,9.09403279 C58.6344867,6.87742623 56.2822814,4.60583607 51.4647529,4.60583607 C45.8605703,4.60583607 42.4411787,9.20463934 42.4411787,15.1326393 C42.4411787,21.0606393 45.9704563,25.7137869 51.7944106,25.7137869 C56.7198859,25.7137869 59.1309125,23.4952623 60.753346,20.5031311 L64.2244487,22.7152623 C61.6453612,27.261 57.8963118,29.5882131 51.8461217,29.5882131 C43.8309125,29.5882131 37.7290114,23.4952623 37.7290114,15.1262459 C37.7290114,6.75722951 43.7792015,0.721819672 51.3936502,0.721819672 C57.6119011,0.721819672 61.2510646,3.43263934 63.4940304,6.75722951 M0.31026616,27.5429508 L3.61589354,25.1057705 C5.96874525,28.1528852 9.721673,30.8125574 15.8843346,30.8125574 C22.7735361,30.8125574 26.0222814,27.6541967 26.0222814,22.8898033 C26.0222814,19.1221475 23.9519011,16.8505574 18.6857795,15.1326393 L13.9251331,13.5214918 C10.6207985,12.3578852 8.21106464,10.6955902 8.21106464,6.92985246 C8.21106464,2.77411475 11.7403422,0.49804918 16.0536882,0.49804918 C20.8712167,0.49804918 23.448365,2.16034426 25.4650951,4.26378689 L22.8879468,6.92345902 C21.3172243,5.32509836 19.3586692,4.1614918 16.3335741,4.1614918 C13.8708365,4.1614918 12.6362357,5.26755738 12.6362357,6.76362295 C12.6362357,8.20214754 13.4765399,8.92460656 15.3252091,9.53198361 L20.3670342,11.1942787 C27.9814829,13.6877213 30.5605703,17.2872295 30.5605703,22.6065738 C30.5612167,29.5377049 26.191635,34.5245902 16.1079848,34.5245902 C7.53688213,34.5245902 2.66311787,30.6463279 0.31026616,27.5429508" id="Shape" fill="#AFACB3" fill-rule="nonzero" mask="url(#mask-2)"></path>
                    </g>
                </g>
                <path d="M40.5996198,28.9718852 L43.9052471,26.5340656 C45.7539163,28.8056557 48.0505323,30.633541 51.8596958,30.633541 C54.8847909,30.633541 56.6772243,29.7474098 56.6772243,27.6414098 C56.6772243,26.035377 55.4445627,25.2592131 52.9242966,24.4287049 L48.4428897,22.9326393 C42.8968821,21.1047541 38.9771863,17.7801639 38.9771863,11.5721311 C38.9771863,4.14934426 45.1928517,0.326065574 51.9708745,0.326065574 C58.9169582,0.326065574 62.3906464,2.59701639 64.9102662,5.36729508 L62.3906464,7.97134426 C60.2058555,5.70167213 57.1251711,3.98183607 52.2514068,3.98183607 C47.3776426,3.98183607 43.4010646,6.58716393 43.4010646,11.4078197 C43.4010646,15.5079344 45.9219772,17.6682787 49.8429658,18.9424918 L54.6042586,20.5485246 C59.030076,22.1002131 61.1586312,23.9287377 61.1586312,27.3639344 C61.1586312,31.5746557 58.301597,34.2893115 52.083346,34.2893115 C46.1462738,34.2893115 42.785057,31.7408852 40.6002662,28.9699672 M33.6121673,18.7532459 L0,18.7532459 L0,0.769770492 L4.59323194,0.769770492 L4.59323194,15.2317377 L5.60159696,15.2317377 L5.60159696,0.769770492 L10.1948289,0.769770492 L10.1948289,15.2317377 L23.4134601,15.2317377 L23.4134601,0.769770492 L28.0079848,0.769770492 L28.0079848,15.2317377 L29.0163498,15.2317377 L29.0163498,0.769770492 L33.6089354,0.769770492 L33.6089354,18.7545246 M29.0163498,20.2378033 L0,20.2378033 L0,38.4463279 L4.59323194,38.4463279 L4.59323194,23.7068852 L5.60159696,23.7068852 L5.60159696,38.4437705 L10.1948289,38.4437705 L10.1948289,23.7068852 L23.4134601,23.7068852 L23.4134601,38.4437705 L28.0079848,38.4437705 L28.0079848,23.7068852 L29.0163498,23.7068852 L29.0163498,38.4437705 L33.6089354,38.4437705 L33.6089354,20.2384426 L29.0163498,20.2384426" id="Shape" fill="#AFACB3" fill-rule="nonzero"></path>
            </g>
        </g>
    </g>
</svg>